{
  "accessors": [
    {
      "bufferView": 2,
      "componentType": 5126,
      "count": 1367,
      "max": [
        100.0,
        268.7789001464844,
        105.17457580566406
      ],
      "min": [
        -100.0,
        1.3543486595153809,
        -99.96302795410156
      ],
      "type": "VEC3"
    },
    {
      "bufferView": 2,
      "byteOffset": 16404,
      "componentType": 5126,
      "count": 1367,
      "max": [
        1.0,
        1.0,
        1.0
      ],
      "min": [
        -1.0,
        -1.0,
        -1.0
      ],
      "type": "VEC3"
    },
    {
      "bufferView": 1,
      "componentType": 5126,
      "count": 1367,
      "max": [
        0.9749224781990051,
        0.9738731384277344
      ],
      "min": [
        0.0019220486283302307,
        0.0019240379333496094
      ],
      "type": "VEC2"
    },
    {
      "bufferView": 0,
      "componentType": 5125,
      "count": 3546,
      "type": "SCALAR"
    },
    {
      "bufferView": 2,
      "byteOffset": 32808,
      "componentType": 5126,
      "count": 258,
      "max": [
        80.2119140625,
        248.9945831298828,
        101.27995300292969
      ],
      "min": [
        -82.81392669677734,
        124.28173828125,
        79.08772277832031
      ],
      "type": "VEC3"
    },
    {
      "bufferView": 2,
      "byteOffset": 35904,
      "componentType": 5126,
      "count": 258,
      "max": [
        0.9634687304496765,
        0.9849754571914673,
        1.0
      ],
      "min": [
        -0.963468611240387,
        -0.9842516183853149,
        -1.0
      ],
      "type": "VEC3"
    },
    {
      "bufferView": 1,
      "byteOffset": 10936,
      "componentType": 5126,
      "count": 258,
      "max": [
        0.9995855689048767,
        0.9736630916595459
      ],
      "min": [
        0.2368769496679306,
        0.1721029430627823
      ],
      "type": "VEC2"
    },
    {
      "bufferView": 0,
      "byteOffset": 14184,
      "componentType": 5125,
      "count": 420,
      "type": "SCALAR"
    },
    {
      "bufferView": 2,
      "byteOffset": 39000,
      "componentType": 5126,
      "count": 1451,
      "max": [
        102.10000610351563,
        270.8788757324219,
        107.27458190917969
      ],
      "min": [
        -102.10000610351563,
        -0.7456514835357666,
        -101.97112274169922
      ],
      "type": "VEC3"
    },
    {
      "bufferView": 2,
      "byteOffset": 56412,
      "componentType": 5126,
      "count": 1451,
      "max": [
        1.0,
        1.0,
        1.0
      ],
      "min": [
        -1.0,
        -1.0,
        -1.0
      ],
      "type": "VEC3"
    },
    {
      "bufferView": 1,
      "byteOffset": 13000,
      "componentType": 5126,
      "count": 1451,
      "max": [
        0.9749224781990051,
        0.9738731384277344
      ],
      "min": [
        0.0,
        0.0
      ],
      "type": "VEC2"
    },
    {
      "bufferView": 0,
      "byteOffset": 15864,
      "componentType": 5125,
      "count": 3198,
      "type": "SCALAR"
    },
    {
      "bufferView": 2,
      "byteOffset": 73824,
      "componentType": 5126,
      "count": 2452,
      "max": [
        110.4054183959961,
        35.142635345458984,
        219.47940063476563
      ],
      "min": [
        -121.91581726074219,
        -1.2132956981658936,
        114.23263549804688
      ],
      "type": "VEC3"
    },
    {
      "bufferView": 2,
      "byteOffset": 103248,
      "componentType": 5126,
      "count": 2452,
      "max": [
        1.0,
        0.9996541738510132,
        1.0
      ],
      "min": [
        -1.0,
        -1.0,
        -1.0
      ],
      "type": "VEC3"
    },
    {
      "bufferView": 1,
      "byteOffset": 24608,
      "componentType": 5126,
      "count": 2452,
      "max": [
        0.9824110269546509,
        0.9997212290763855
      ],
      "min": [
        0.00011967867612838745,
        0.004992783069610596
      ],
      "type": "VEC2"
    },
    {
      "bufferView": 0,
      "byteOffset": 28656,
      "componentType": 5125,
      "count": 3666,
      "type": "SCALAR"
    },
    {
      "bufferView": 2,
      "byteOffset": 132672,
      "componentType": 5126,
      "count": 1412,
      "max": [
        112.02020263671875,
        36.775238037109375,
        221.1453857421875
      ],
      "min": [
        -123.53060150146484,
        -3.3109889030456543,
        112.63682556152344
      ],
      "type": "VEC3"
    },
    {
      "bufferView": 2,
      "byteOffset": 149616,
      "componentType": 5126,
      "count": 1412,
      "max": [
        0.9999961853027344,
        1.0,
        0.9999979734420776
      ],
      "min": [
        -0.9999961853027344,
        -0.9853953123092651,
        -0.9999759197235107
      ],
      "type": "VEC3"
    },
    {
      "bufferView": 1,
      "byteOffset": 44224,
      "componentType": 5126,
      "count": 1412,
      "max": [
        0.9824110269546509,
        0.9997212290763855
      ],
      "min": [
        0.00011967867612838745,
        0.004992783069610596
      ],
      "type": "VEC2"
    },
    {
      "bufferView": 0,
      "byteOffset": 43320,
      "componentType": 5125,
      "count": 2106,
      "type": "SCALAR"
    },
    {
      "bufferView": 2,
      "byteOffset": 166560,
      "componentType": 5126,
      "count": 194,
      "max": [
        181.5866241455078,
        27.374284744262695,
        204.58514404296875
      ],
      "min": [
        140.0663604736328,
        0.5640801191329956,
        132.20657348632813
      ],
      "type": "VEC3"
    },
    {
      "bufferView": 2,
      "byteOffset": 168888,
      "componentType": 5126,
      "count": 194,
      "max": [
        1.0,
        0.9996541142463684,
        1.0
      ],
      "min": [
        -1.0,
        -1.0,
        -1.0
      ],
      "type": "VEC3"
    },
    {
      "bufferView": 1,
      "byteOffset": 55520,
      "componentType": 5126,
      "count": 194,
      "max": [
        0.8590831756591797,
        0.9785693883895874
      ],
      "min": [
        0.15594780445098877,
        0.27938413619995117
      ],
      "type": "VEC2"
    },
    {
      "bufferView": 0,
      "byteOffset": 51744,
      "componentType": 5125,
      "count": 288,
      "type": "SCALAR"
    },
    {
      "bufferView": 2,
      "byteOffset": 171216,
      "componentType": 5126,
      "count": 168,
      "max": [
        183.39752197265625,
        28.942028045654297,
        206.18846130371094
      ],
      "min": [
        138.25546264648438,
        -1.5267553329467773,
        130.72836303710938
      ],
      "type": "VEC3"
    },
    {
      "bufferView": 2,
      "byteOffset": 173232,
      "componentType": 5126,
      "count": 168,
      "max": [
        0.9999819993972778,
        1.0,
        0.9999955296516418
      ],
      "min": [
        -0.9999819993972778,
        -0.9978340268135071,
        -0.9999544024467468
      ],
      "type": "VEC3"
    },
    {
      "bufferView": 1,
      "byteOffset": 57072,
      "componentType": 5126,
      "count": 168,
      "max": [
        0.8590831756591797,
        0.9785693883895874
      ],
      "min": [
        0.15594780445098877,
        0.27938413619995117
      ],
      "type": "VEC2"
    },
    {
      "bufferView": 0,
      "byteOffset": 52896,
      "componentType": 5125,
      "count": 240,
      "type": "SCALAR"
    },
    {
      "bufferView": 2,
      "byteOffset": 175248,
      "componentType": 5126,
      "count": 4356,
      "max": [
        100.0,
        0.0,
        100.0
      ],
      "min": [
        -100.0,
        0.0,
        -100.0
      ],
      "type": "VEC3"
    },
    {
      "bufferView": 2,
      "byteOffset": 227520,
      "componentType": 5126,
      "count": 4356,
      "max": [
        0.0,
        1.0,
        0.0
      ],
      "min": [
        0.0,
        1.0,
        0.0
      ],
      "type": "VEC3"
    },
    {
      "bufferView": 1,
      "byteOffset": 58416,
      "componentType": 5126,
      "count": 4356,
      "max": [
        1.0,
        1.0
      ],
      "min": [
        0.0,
        0.0
      ],
      "type": "VEC2"
    },
    {
      "bufferView": 0,
      "byteOffset": 53856,
      "componentType": 5125,
      "count": 6534,
      "type": "SCALAR"
    },
    {
      "bufferView": 2,
      "byteOffset": 279792,
      "componentType": 5126,
      "count": 4352,
      "max": [
        100.0,
        0.0,
        100.0
      ],
      "min": [
        -100.0,
        0.0,
        -100.0
      ],
      "type": "VEC3"
    },
    {
      "bufferView": 2,
      "byteOffset": 332016,
      "componentType": 5126,
      "count": 4352,
      "max": [
        0.0,
        1.0,
        0.0
      ],
      "min": [
        0.0,
        1.0,
        0.0
      ],
      "type": "VEC3"
    },
    {
      "bufferView": 1,
      "byteOffset": 93264,
      "componentType": 5126,
      "count": 4352,
      "max": [
        1.0,
        1.0
      ],
      "min": [
        0.0,
        0.0
      ],
      "type": "VEC2"
    },
    {
      "bufferView": 0,
      "byteOffset": 79992,
      "componentType": 5125,
      "count": 18816,
      "type": "SCALAR"
    },
    {
      "bufferView": 2,
      "byteOffset": 384240,
      "componentType": 5126,
      "count": 4356,
      "max": [
        100.0,
        0.0,
        100.0
      ],
      "min": [
        -100.0,
        0.0,
        -100.0
      ],
      "type": "VEC3"
    },
    {
      "bufferView": 2,
      "byteOffset": 436512,
      "componentType": 5126,
      "count": 4356,
      "max": [
        0.0,
        1.0,
        0.0
      ],
      "min": [
        0.0,
        1.0,
        0.0
      ],
      "type": "VEC3"
    },
    {
      "bufferView": 1,
      "byteOffset": 128080,
      "componentType": 5126,
      "count": 4356,
      "max": [
        1.0,
        1.0
      ],
      "min": [
        0.0,
        0.0
      ],
      "type": "VEC2"
    },
    {
      "bufferView": 0,
      "byteOffset": 155256,
      "componentType": 5125,
      "count": 6534,
      "type": "SCALAR"
    },
    {
      "bufferView": 2,
      "byteOffset": 488784,
      "componentType": 5126,
      "count": 4352,
      "max": [
        100.0,
        0.0,
        100.0
      ],
      "min": [
        -100.0,
        0.0,
        -100.0
      ],
      "type": "VEC3"
    },
    {
      "bufferView": 2,
      "byteOffset": 541008,
      "componentType": 5126,
      "count": 4352,
      "max": [
        0.0,
        1.0,
        0.0
      ],
      "min": [
        0.0,
        1.0,
        0.0
      ],
      "type": "VEC3"
    },
    {
      "bufferView": 1,
      "byteOffset": 162928,
      "componentType": 5126,
      "count": 4352,
      "max": [
        1.0,
        1.0
      ],
      "min": [
        0.0,
        0.0
      ],
      "type": "VEC2"
    },
    {
      "bufferView": 0,
      "byteOffset": 181392,
      "componentType": 5125,
      "count": 18816,
      "type": "SCALAR"
    }
  ],
  "asset": {
    "extras": {
      "author": "Kyyy_24 (https://sketchfab.com/luckyardrianto27)",
      "license": "CC-BY-4.0 (http://creativecommons.org/licenses/by/4.0/)",
      "source": "https://sketchfab.com/3d-models/aestetic-computer-fe39179ab0964133b4298c53f0d2bbc3",
      "title": "aestetic computer"
    },
    "generator": "Sketchfab-14.27.0",
    "version": "2.0"
  },
  "bufferViews": [
    {
      "buffer": 0,
      "byteLength": 256656,
      "name": "floatBufferViews",
      "target": 34963
    },
    {
      "buffer": 0,
      "byteLength": 197744,
      "byteOffset": 256656,
      "byteStride": 8,
      "name": "floatBufferViews",
      "target": 34962
    },
    {
      "buffer": 0,
      "byteLength": 593232,
      "byteOffset": 454400,
      "byteStride": 12,
      "name": "floatBufferViews",
      "target": 34962
    }
  ],
  "buffers": [
    {
      "byteLength": 1047632,
      "uri": "scene.bin"
    }
  ],
  "extensionsUsed": [
    "KHR_materials_unlit"
  ],
  "materials": [
    {
      "doubleSided": true,
      "extensions": {
        "KHR_materials_unlit": {}
      },
      "name": "Material",
      "pbrMetallicRoughness": {
        "baseColorFactor": [
          0.0,
          0.0,
          0.0,
          1.0
        ],
        "metallicFactor": 0.0
      }
    },
    {
      "doubleSided": true,
      "emissiveFactor": [
        0.013774808380257138,
        0.7348563976808845,
        0.9159965364531655
      ],
      "extensions": {
        "KHR_materials_unlit": {}
      },
      "name": "Screen",
      "pbrMetallicRoughness": {
        "baseColorFactor": [
          0.0396770277778781,
          0.8255135651164089,
          0.8648245820318268,
          1.0
        ],
        "metallicFactor": 0.0
      }
    },
    {
      "emissiveFactor": [
        0.031962509030866636,
        0.5691922113595878,
        1.0
      ],
      "extensions": {
        "KHR_materials_unlit": {}
      },
      "name": "outline",
      "pbrMetallicRoughness": {
        "baseColorFactor": [
          0.03412670000000001,
          0.3434300000000001,
          0.7999999999999999,
          1.0
        ],
        "metallicFactor": 0.0
      }
    },
    {
      "doubleSided": true,
      "extensions": {
        "KHR_materials_unlit": {}
      },
      "name": "Floor",
      "pbrMetallicRoughness": {
        "baseColorFactor": [
          0.0,
          0.0,
          0.0,
          1.0
        ],
        "metallicFactor": 0.0
      }
    },
    {
      "emissiveFactor": [
        1.0,
        0.01800047100627757,
        1.0
      ],
      "extensions": {
        "KHR_materials_unlit": {}
      },
      "name": "floor_outline",
      "pbrMetallicRoughness": {
        "baseColorFactor": [
          0.638150314537983,
          0.010617401640552651,
          0.8648245820318268,
          1.0
        ],
        "metallicFactor": 0.0
      }
    }
  ],
  "meshes": [
    {
      "name": "Cube_Material_0",
      "primitives": [
        {
          "attributes": {
            "NORMAL": 1,
            "POSITION": 0,
            "TEXCOORD_0": 2
          },
          "indices": 3,
          "material": 0,
          "mode": 4
        }
      ]
    },
    {
      "name": "Cube_Screen_0",
      "primitives": [
        {
          "attributes": {
            "NORMAL": 5,
            "POSITION": 4,
            "TEXCOORD_0": 6
          },
          "indices": 7,
          "material": 1,
          "mode": 4
        }
      ]
    },
    {
      "name": "Cube_outline_0",
      "primitives": [
        {
          "attributes": {
            "NORMAL": 9,
            "POSITION": 8,
            "TEXCOORD_0": 10
          },
          "indices": 11,
          "material": 2,
          "mode": 4
        }
      ]
    },
    {
      "name": "Cube.005_Material_0",
      "primitives": [
        {
          "attributes": {
            "NORMAL": 13,
            "POSITION": 12,
            "TEXCOORD_0": 14
          },
          "indices": 15,
          "material": 0,
          "mode": 4
        }
      ]
    },
    {
      "name": "Cube.005_outline_0",
      "primitives": [
        {
          "attributes": {
            "NORMAL": 17,
            "POSITION": 16,
            "TEXCOORD_0": 18
          },
          "indices": 19,
          "material": 2,
          "mode": 4
        }
      ]
    },
    {
      "name": "Cube.014_Material_0",
      "primitives": [
        {
          "attributes": {
            "NORMAL": 21,
            "POSITION": 20,
            "TEXCOORD_0": 22
          },
          "indices": 23,
          "material": 0,
          "mode": 4
        }
      ]
    },
    {
      "name": "Cube.014_outline_0",
      "primitives": [
        {
          "attributes": {
            "NORMAL": 25,
            "POSITION": 24,
            "TEXCOORD_0": 26
          },
          "indices": 27,
          "material": 2,
          "mode": 4
        }
      ]
    },
    {
      "name": "Plane_Floor_0",
      "primitives": [
        {
          "attributes": {
            "NORMAL": 29,
            "POSITION": 28,
            "TEXCOORD_0": 30
          },
          "indices": 31,
          "material": 3,
          "mode": 4
        }
      ]
    },
    {
      "name": "Plane_floor outline_0",
      "primitives": [
        {
          "attributes": {
            "NORMAL": 33,
            "POSITION": 32,
            "TEXCOORD_0": 34
          },
          "indices": 35,
          "material": 4,
          "mode": 4
        }
      ]
    },
    {
      "name": "Plane.001_Floor_0",
      "primitives": [
        {
          "attributes": {
            "NORMAL": 37,
            "POSITION": 36,
            "TEXCOORD_0": 38
          },
          "indices": 39,
          "material": 3,
          "mode": 4
        }
      ]
    },
    {
      "name": "Plane.001_floor outline_0",
      "primitives": [
        {
          "attributes": {
            "NORMAL": 41,
            "POSITION": 40,
            "TEXCOORD_0": 42
          },
          "indices": 43,
          "material": 4,
          "mode": 4
        }
      ]
    }
  ],
  "nodes": [
    {
      "children": [
        1
      ],
      "matrix": [
        1.0,
        0.0,
        0.0,
        0.0,
        0.0,
        2.220446049250313e-16,
        -1.0,
        0.0,
        0.0,
        1.0,
        2.220446049250313e-16,
        0.0,
        0.0,
        0.0,
        0.0,
        1.0
      ],
      "name": "Sketchfab_model"
    },
    {
      "children": [
        2
      ],
      "matrix": [
        0.009999999776482582,
        0.0,
        0.0,
        0.0,
        0.0,
        0.0,
        0.009999999776482582,
        0.0,
        0.0,
        -0.009999999776482582,
        0.0,
        0.0,
        0.0,
        0.0,
        0.0,
        1.0
      ],
      "name": "bb65afe1bfba416aa629a220ddf03724.fbx"
    },
    {
      "children": [
        3,
        7,
        10,
        13,
        16
      ],
      "name": "RootNode"
    },
    {
      "children": [
        4,
        5,
        6
      ],
      "matrix": [
        1.0,
        0.0,
        0.0,
        0.0,
        0.0,
        1.0,
        0.0,
        0.0,
        0.0,
        0.0,
        1.0,
        0.0,
        0.0,
        203.092529296875,
        0.0,
        1.0
      ],
      "name": "Cube"
    },
    {
      "mesh": 0,
      "name": "Cube_Material_0"
    },
    {
      "mesh": 1,
      "name": "Cube_Screen_0"
    },
    {
      "mesh": 2,
      "name": "Cube_outline_0"
    },
    {
      "children": [
        8,
        9
      ],
      "matrix": [
        1.0,
        0.0,
        0.0,
        0.0,
        0.0,
        1.0,
        0.0,
        0.0,
        0.0,
        0.0,
        1.0,
        0.0,
        0.0,
        203.092529296875,
        32.94757843017578,
        1.0
      ],
      "name": "Cube.005"
    },
    {
      "mesh": 3,
      "name": "Cube.005_Material_0"
    },
    {
      "mesh": 4,
      "name": "Cube.005_outline_0"
    },
    {
      "children": [
        11,
        12
      ],
      "matrix": [
        1.0,
        0.0,
        0.0,
        0.0,
        0.0,
        1.0,
        0.0,
        0.0,
        0.0,
        0.0,
        1.0,
        0.0,
        0.0,
        203.092529296875,
        32.94757843017578,
        1.0
      ],
      "name": "Cube.014"
    },
    {
      "mesh": 5,
      "name": "Cube.014_Material_0"
    },
    {
      "mesh": 6,
      "name": "Cube.014_outline_0"
    },
    {
      "children": [
        14,
        15
      ],
      "matrix": [
        46.92069625854492,
        0.0,
        0.0,
        0.0,
        0.0,
        46.92069625854492,
        0.0,
        0.0,
        0.0,
        0.0,
        46.92069625854492,
        0.0,
        0.0,
        0.0,
        0.0,
        1.0
      ],
      "name": "Plane"
    },
    {
      "mesh": 7,
      "name": "Plane_Floor_0"
    },
    {
      "mesh": 8,
      "name": "Plane_floor outline_0"
    },
    {
      "children": [
        17,
        18
      ],
      "matrix": [
        -46.92069625854439,
        -7.084828025785885e-06,
        -9.519094077955678e-13,
        0.0,
        7.084828025785885e-06,
        -46.92069625854269,
        -1.2608420855994435e-05,
        0.0,
        9.51909174717192e-13,
        -1.2608420855994435e-05,
        46.92069625854323,
        0.0,
        0.0,
        693.102294921875,
        0.0,
        1.0
      ],
      "name": "Plane.001"
    },
    {
      "mesh": 9,
      "name": "Plane.001_Floor_0"
    },
    {
      "mesh": 10,
      "name": "Plane.001_floor outline_0"
    }
  ],
  "scene": 0,
  "scenes": [
    {
      "name": "Sketchfab_Scene",
      "nodes": [
        0
      ]
    }
  ]
}
