{
  "accessors": [
    {
      "bufferView": 2,
      "componentType": 5126,
      "count": 2117,
      "max": [
        29.928022384643555,
        21.150550842285156,
        28.471080780029297
      ],
      "min": [
        -29.928022384643555,
        -21.150524139404297,
        -0.012140999548137188
      ],
      "type": "VEC3"
    },
    {
      "bufferView": 2,
      "byteOffset": 25404,
      "componentType": 5126,
      "count": 2117,
      "max": [
        1.0,
        1.0,
        1.0
      ],
      "min": [
        -1.0,
        -1.0,
        -1.0
      ],
      "type": "VEC3"
    },
    {
      "bufferView": 3,
      "componentType": 5126,
      "count": 2117,
      "max": [
        1.0,
        1.0,
        1.0,
        1.0
      ],
      "min": [
        -1.0,
        -1.0,
        -1.0,
        -1.0
      ],
      "type": "VEC4"
    },
    {
      "bufferView": 1,
      "componentType": 5126,
      "count": 2117,
      "max": [
        0.9969679713249207,
        0.9993709921836853
      ],
      "min": [
        0.0031349998898804188,
        0.001744000008329749
      ],
      "type": "VEC2"
    },
    {
      "bufferView": 0,
      "componentType": 5125,
      "count": 6126,
      "type": "SCALAR"
    },
    {
      "bufferView": 2,
      "byteOffset": 50808,
      "componentType": 5126,
      "count": 28,
      "max": [
        21.91127586364746,
        13.19317626953125,
        28.4869327545166
      ],
      "min": [
        -21.911273956298828,
        0.6485520005226135,
        17.127605438232422
      ],
      "type": "VEC3"
    },
    {
      "bufferView": 2,
      "byteOffset": 51144,
      "componentType": 5126,
      "count": 28,
      "max": [
        0.7513710260391235,
        -0.6598800420761108,
        0.0
      ],
      "min": [
        -0.7513710260391235,
        -1.0,
        0.0
      ],
      "type": "VEC3"
    },
    {
      "bufferView": 1,
      "byteOffset": 16936,
      "componentType": 5126,
      "count": 28,
      "max": [
        0.9984139800071716,
        0.8241689801216125
      ],
      "min": [
        0.0008829999715089798,
        0.0005760000203736126
      ],
      "type": "VEC2"
    },
    {
      "bufferView": 0,
      "byteOffset": 24504,
      "componentType": 5125,
      "count": 42,
      "type": "SCALAR"
    }
  ],
  "asset": {
    "extras": {
      "author": "Lee Alex Johansson (https://sketchfab.com/lee.johansson)",
      "license": "CC-BY-4.0 (http://creativecommons.org/licenses/by/4.0/)",
      "source": "https://sketchfab.com/3d-models/weathered-workstation-dc877404be0445f0a855e37f2747794a",
      "title": "Weathered Workstation"
    },
    "generator": "Sketchfab-12.66.0",
    "version": "2.0"
  },
  "bufferViews": [
    {
      "buffer": 0,
      "byteLength": 24672,
      "name": "floatBufferViews",
      "target": 34963
    },
    {
      "buffer": 0,
      "byteLength": 17160,
      "byteOffset": 24672,
      "byteStride": 8,
      "name": "floatBufferViews",
      "target": 34962
    },
    {
      "buffer": 0,
      "byteLength": 51480,
      "byteOffset": 41832,
      "byteStride": 12,
      "name": "floatBufferViews",
      "target": 34962
    },
    {
      "buffer": 0,
      "byteLength": 33872,
      "byteOffset": 93312,
      "byteStride": 16,
      "name": "floatBufferViews",
      "target": 34962
    }
  ],
  "buffers": [
    {
      "byteLength": 127184,
      "uri": "scene.bin"
    }
  ],
  "images": [
    {
      "uri": "textures/desk_baseColor.png"
    },
    {
      "uri": "textures/desk_metallicRoughness.png"
    },
    {
      "uri": "textures/desk_emissive.png"
    },
    {
      "uri": "textures/desk_normal.png"
    },
    {
      "uri": "textures/wire_224198087_baseColor.png"
    },
    {
      "uri": "textures/wire_224198087_emissive.png"
    }
  ],
  "materials": [
    {
      "doubleSided": true,
      "emissiveFactor": [
        0.5,
        0.5,
        0.5
      ],
      "emissiveTexture": {
        "index": 2
      },
      "name": "desk",
      "normalTexture": {
        "index": 3
      },
      "occlusionTexture": {
        "index": 1
      },
      "pbrMetallicRoughness": {
        "baseColorTexture": {
          "index": 0
        },
        "metallicRoughnessTexture": {
          "index": 1
        }
      }
    },
    {
      "alphaMode": "BLEND",
      "doubleSided": true,
      "emissiveFactor": [
        1.0,
        1.0,
        1.0
      ],
      "emissiveTexture": {
        "index": 5
      },
      "name": "wire_224198087",
      "pbrMetallicRoughness": {
        "baseColorTexture": {
          "index": 4
        },
        "metallicFactor": 0.0,
        "roughnessFactor": 0.6
      }
    }
  ],
  "meshes": [
    {
      "name": "Object_0",
      "primitives": [
        {
          "attributes": {
            "NORMAL": 1,
            "POSITION": 0,
            "TANGENT": 2,
            "TEXCOORD_0": 3
          },
          "indices": 4,
          "material": 0,
          "mode": 4
        }
      ]
    },
    {
      "name": "Object_1",
      "primitives": [
        {
          "attributes": {
            "NORMAL": 6,
            "POSITION": 5,
            "TEXCOORD_0": 7
          },
          "indices": 8,
          "material": 1,
          "mode": 4
        }
      ]
    }
  ],
  "nodes": [
    {
      "children": [
        1
      ],
      "matrix": [
        1.0,
        0.0,
        0.0,
        0.0,
        0.0,
        2.220446049250313e-16,
        -1.0,
        0.0,
        0.0,
        1.0,
        2.220446049250313e-16,
        0.0,
        0.0,
        0.0,
        0.0,
        1.0
      ],
      "name": "Sketchfab_model"
    },
    {
      "children": [
        2,
        3
      ],
      "name": "811587abe6b6448381cbdb4a76637e4a.obj.cleaner.materialmerger.gles"
    },
    {
      "mesh": 0,
      "name": "Object_2"
    },
    {
      "mesh": 1,
      "name": "Object_3"
    }
  ],
  "samplers": [
    {
      "magFilter": 9729,
      "minFilter": 9987,
      "wrapS": 10497,
      "wrapT": 10497
    }
  ],
  "scene": 0,
  "scenes": [
    {
      "name": "Sketchfab_Scene",
      "nodes": [
        0
      ]
    }
  ],
  "textures": [
    {
      "sampler": 0,
      "source": 0
    },
    {
      "sampler": 0,
      "source": 1
    },
    {
      "sampler": 0,
      "source": 2
    },
    {
      "sampler": 0,
      "source": 3
    },
    {
      "sampler": 0,
      "source": 4
    },
    {
      "sampler": 0,
      "source": 5
    }
  ]
}
